# xmcd CD database file
#
# Track frame offsets:
#	150
#	9637
#	24710
#	39397
#	55437
#	68927
#	80402
#	97607
#	108297
#	120760
#	128727
#	141977
#	151767
#	163062
#	173637
#	188332
#	201887
#	216650
#	228305
#
# Disc length: 3241 seconds
#
# Revision: 0
# Processed by: cddbd v1.5.1PL0 Copyright (c) Steve Scherf et al.
# Submitted via: CDex 1.51
#
DISCID=f40ca713
DTITLE=Nat King Cole - The Nat 'King' Cole Trio
DYEAR=1989
DGENRE=Jazz
TTITLE0=Theme
TTITLE1=Just You, Just Me
TTITLE2=I've Got The World On A String
TTITLE3=Rhumba A La King
TTITLE4=On The Sunny Side Of The Street
TTITLE5=Lester Leaps In
TTITLE6=Chant Of The Blues
TTITLE7=I Know That You Know
TTITLE8=I Don't Know Why
TTITLE9=Cole Capers
TTITLE10=How Deep Is The Ocean
TTITLE11=Swingin' The Blues
TTITLE12=But She's My Buddy's Chick
TTITLE13=I Got Rhythmn
TTITLE14=Baby, Baby All The Time
TTITLE15=Homeward Bound
TTITLE16=Mabeli Mabeli
TTITLE17=After You Get What You Want You Don't Want It
TTITLE18=Somebody Loves Me
EXTD=YEAR: 1989
EXTT0=
EXTT1=
EXTT2=
EXTT3=
EXTT4=
EXTT5=
EXTT6=
EXTT7=
EXTT8=
EXTT9=
EXTT10=
EXTT11=
EXTT12=
EXTT13=
EXTT14=
EXTT15=
EXTT16=
EXTT17=
EXTT18=
PLAYORDER=
